<svg t="1710340121037" class="icon" viewBox="0 0 1024 1024" version="1.1" xmlns="http://www.w3.org/2000/svg">
  <path d="M512 512m-448 0a448 448 0 1 0 896 0 448 448 0 1 0-896 0Z" fill="#ffffff"/>
  <path d="M513.97312 99.53792c-228.35584 0-413.43744 185.0880-413.43744 413.44256 0 228.35072 185.0816 413.43744 413.43744 413.43744s413.43744-185.08672 413.43744-413.43744c0-228.35456-185.0816-413.44256-413.43744-413.44256z m273.27424 651.59808l-68.2496-184.9856h-178.06848v92.49792h89.0368c-11.69408 31.86688-42.1376 54.74304-77.8752 54.74304-45.85472 0-83.02592-37.1712-83.02592-83.02592s37.1712-83.02592 83.02592-83.02592c21.9648 0 41.9328 8.51968 56.8832 22.38464l65.23904-65.23904c-32.85504-32.85504-78.24384-53.18656-128.31744-53.18656-100.15744 0-181.41696 81.25952-181.41696 181.41696s81.25952 181.41696 181.41696 181.41696c100.15744 0 181.41696-81.25952 181.41696-181.41696h92.49792l68.2496 184.9856h-273.27424v92.49792h273.27424v-92.49792z" fill="#2c2c2c"/>
</svg> 